M48
; DRILL file {KiCad 5.1.10-88a1d61d58~88~ubuntu18.04.1} date Fri Nov 26 09:46:23 2021
; FORMAT={-:-/ absolute / inch / decimal}
; #@! TF.CreationDate,2021-11-26T09:46:23+05:30
; #@! TF.GenerationSoftware,Kicad,Pcbnew,5.1.10-88a1d61d58~88~ubuntu18.04.1
FMAT,2
INCH
T1C0.0276
T2C0.0315
T3C0.0394
T4C0.0472
%
G90
G05
T1
X5.6283Y-2.5016
X5.6299Y-1.3976
X5.7283Y-2.4016
X5.7283Y-2.6016
X5.7299Y-1.4976
X5.8299Y-1.3976
T2
X4.7363Y-2.8937
X4.7543Y-1.9094
X5.3363Y-2.8937
X5.3543Y-1.9094
X6.7363Y-1.6339
X6.7363Y-2.2339
X6.7363Y-3.0315
X6.7363Y-3.6315
T3
X3.3268Y-1.3976
X3.3268Y-3.9173
X3.4268Y-1.3976
X3.4268Y-3.9173
X3.9764Y-1.7126
X4.0717Y-1.3976
X4.0764Y-1.7126
X4.1717Y-1.3976
X4.2717Y-1.3976
X4.2717Y-1.7126
X4.3717Y-1.7126
X4.4439Y-3.9173
X4.5439Y-3.9173
X4.9213Y-1.3976
X5.0213Y-1.3976
X5.561Y-3.9173
X5.661Y-3.9173
X5.7283Y-1.8701
X5.7283Y-1.9701
X5.7283Y-2.8937
X5.7283Y-2.9937
X6.2795Y-2.5
X6.3795Y-2.5
X6.4173Y-1.3976
X6.5173Y-1.3976
X6.6781Y-3.9173
X6.7781Y-3.9173
X7.0276Y-1.7126
X7.1228Y-1.3976
X7.1276Y-1.7126
X7.2228Y-1.3976
X7.3228Y-1.3976
X7.3228Y-1.7126
X7.4228Y-1.7126
X7.7953Y-1.3976
X7.7953Y-3.9173
X7.8953Y-1.3976
X7.8953Y-3.9173
T4
X5.7283Y-3.189
X5.7283Y-3.789
T0
M30
