%TF.GenerationSoftware,KiCad,Pcbnew,5.1.10-88a1d61d58~88~ubuntu18.04.1*%
%TF.CreationDate,2021-11-26T07:14:43+05:30*%
%TF.ProjectId,power_supply,706f7765-725f-4737-9570-706c792e6b69,rev?*%
%TF.SameCoordinates,Original*%
%TF.FileFunction,Copper,L1,Top*%
%TF.FilePolarity,Positive*%
%FSLAX46Y46*%
G04 Gerber Fmt 4.6, Leading zero omitted, Abs format (unit mm)*
G04 Created by KiCad (PCBNEW 5.1.10-88a1d61d58~88~ubuntu18.04.1) date 2021-11-26 07:14:43*
%MOMM*%
%LPD*%
G01*
G04 APERTURE LIST*
%TA.AperFunction,ComponentPad*%
%ADD10R,1.700000X1.700000*%
%TD*%
%TA.AperFunction,ComponentPad*%
%ADD11O,1.700000X1.700000*%
%TD*%
%TA.AperFunction,ComponentPad*%
%ADD12O,1.600000X1.200000*%
%TD*%
%TA.AperFunction,ComponentPad*%
%ADD13O,1.200000X1.200000*%
%TD*%
%TA.AperFunction,ComponentPad*%
%ADD14O,1.200000X1.600000*%
%TD*%
%TA.AperFunction,ComponentPad*%
%ADD15R,2.400000X2.400000*%
%TD*%
%TA.AperFunction,ComponentPad*%
%ADD16O,2.400000X2.400000*%
%TD*%
%TA.AperFunction,ComponentPad*%
%ADD17C,1.600000*%
%TD*%
%TA.AperFunction,ComponentPad*%
%ADD18O,1.600000X1.600000*%
%TD*%
G04 APERTURE END LIST*
D10*
%TO.P,J14,1*%
%TO.N,GND*%
X169625000Y-99500000D03*
D11*
%TO.P,J14,2*%
X172165000Y-99500000D03*
%TD*%
D10*
%TO.P,J21,1*%
%TO.N,GND*%
X141250000Y-99500000D03*
D11*
%TO.P,J21,2*%
X143790000Y-99500000D03*
%TD*%
%TO.P,J20,3*%
%TO.N,Vout*%
X180920000Y-35500000D03*
%TO.P,J20,2*%
%TO.N,Net-(J19-Pad1)*%
X183460000Y-35500000D03*
D10*
%TO.P,J20,1*%
X186000000Y-35500000D03*
%TD*%
D11*
%TO.P,J3,3*%
%TO.N,Net-(J1-Pad1)*%
X103420000Y-35500000D03*
%TO.P,J3,2*%
%TO.N,Vin*%
X105960000Y-35500000D03*
D10*
%TO.P,J3,1*%
X108500000Y-35500000D03*
%TD*%
D11*
%TO.P,J1,2*%
%TO.N,Net-(J1-Pad1)*%
X87040000Y-35500000D03*
D10*
%TO.P,J1,1*%
X84500000Y-35500000D03*
%TD*%
D11*
%TO.P,J19,2*%
%TO.N,Net-(J19-Pad1)*%
X188540000Y-43500000D03*
D10*
%TO.P,J19,1*%
X186000000Y-43500000D03*
%TD*%
D11*
%TO.P,J18,2*%
%TO.N,Vout*%
X181040000Y-43500000D03*
D10*
%TO.P,J18,1*%
X178500000Y-43500000D03*
%TD*%
%TO.P,J12,1*%
%TO.N,Vin*%
X108500000Y-43500000D03*
D11*
%TO.P,J12,2*%
X111040000Y-43500000D03*
%TD*%
D10*
%TO.P,J2,1*%
%TO.N,Net-(J1-Pad1)*%
X101000000Y-43500000D03*
D11*
%TO.P,J2,2*%
X103540000Y-43500000D03*
%TD*%
D10*
%TO.P,J13,1*%
%TO.N,GND*%
X112875000Y-99500000D03*
D11*
%TO.P,J13,2*%
X115415000Y-99500000D03*
%TD*%
D12*
%TO.P,Q1,1*%
%TO.N,Vin*%
X143000000Y-35500000D03*
D13*
%TO.P,Q1,2*%
%TO.N,/Vb1*%
X145540000Y-38040000D03*
%TO.P,Q1,3*%
%TO.N,Vout*%
X148080000Y-35500000D03*
%TD*%
%TO.P,Q2,3*%
%TO.N,/Vz*%
X145500000Y-66080000D03*
%TO.P,Q2,2*%
%TO.N,/Vfb*%
X142960000Y-63540000D03*
D14*
%TO.P,Q2,1*%
%TO.N,/Vb1*%
X145500000Y-61000000D03*
%TD*%
D15*
%TO.P,D1,1*%
%TO.N,/Vz*%
X145500000Y-81000000D03*
D16*
%TO.P,D1,2*%
%TO.N,GND*%
X145500000Y-96240000D03*
%TD*%
D11*
%TO.P,J11,2*%
%TO.N,GND*%
X87040000Y-99500000D03*
D10*
%TO.P,J11,1*%
X84500000Y-99500000D03*
%TD*%
D11*
%TO.P,J10,2*%
%TO.N,GND*%
X200540000Y-99500000D03*
D10*
%TO.P,J10,1*%
X198000000Y-99500000D03*
%TD*%
%TO.P,J9,1*%
%TO.N,/Vb1*%
X145500000Y-47500000D03*
D11*
%TO.P,J9,2*%
X145500000Y-50040000D03*
%TD*%
D10*
%TO.P,J8,1*%
%TO.N,/Vz*%
X145500000Y-73500000D03*
D11*
%TO.P,J8,2*%
X145500000Y-76040000D03*
%TD*%
D10*
%TO.P,J7,1*%
%TO.N,Vin*%
X125000000Y-35500000D03*
D11*
%TO.P,J7,2*%
X127540000Y-35500000D03*
%TD*%
D10*
%TO.P,J6,1*%
%TO.N,/Vfb*%
X159500000Y-63500000D03*
D11*
%TO.P,J6,2*%
X162040000Y-63500000D03*
%TD*%
D10*
%TO.P,J5,1*%
%TO.N,Vout*%
X163000000Y-35500000D03*
D11*
%TO.P,J5,2*%
X165540000Y-35500000D03*
%TD*%
D10*
%TO.P,J4,1*%
%TO.N,Net-(J19-Pad1)*%
X198000000Y-35500000D03*
D11*
%TO.P,J4,2*%
X200540000Y-35500000D03*
%TD*%
D17*
%TO.P,R2,1*%
%TO.N,/Vz*%
X135542500Y-73500000D03*
D18*
%TO.P,R2,2*%
%TO.N,Vin*%
X120302500Y-73500000D03*
%TD*%
%TO.P,R4,2*%
%TO.N,GND*%
X171102500Y-92240000D03*
D17*
%TO.P,R4,1*%
%TO.N,/Vfb*%
X171102500Y-77000000D03*
%TD*%
%TO.P,R3,1*%
%TO.N,Vout*%
X171102500Y-41500000D03*
D18*
%TO.P,R3,2*%
%TO.N,/Vfb*%
X171102500Y-56740000D03*
%TD*%
D17*
%TO.P,R1,1*%
%TO.N,/Vb1*%
X136000000Y-48500000D03*
D18*
%TO.P,R1,2*%
%TO.N,Vin*%
X120760000Y-48500000D03*
%TD*%
M02*
