%TF.GenerationSoftware,KiCad,Pcbnew,5.1.10-88a1d61d58~88~ubuntu18.04.1*%
%TF.CreationDate,2021-11-26T07:14:43+05:30*%
%TF.ProjectId,power_supply,706f7765-725f-4737-9570-706c792e6b69,rev?*%
%TF.SameCoordinates,Original*%
%TF.FileFunction,Soldermask,Bot*%
%TF.FilePolarity,Negative*%
%FSLAX46Y46*%
G04 Gerber Fmt 4.6, Leading zero omitted, Abs format (unit mm)*
G04 Created by KiCad (PCBNEW 5.1.10-88a1d61d58~88~ubuntu18.04.1) date 2021-11-26 07:14:43*
%MOMM*%
%LPD*%
G01*
G04 APERTURE LIST*
%ADD10R,1.700000X1.700000*%
%ADD11O,1.700000X1.700000*%
%ADD12O,1.600000X1.200000*%
%ADD13O,1.200000X1.200000*%
%ADD14O,1.200000X1.600000*%
%ADD15R,2.400000X2.400000*%
%ADD16O,2.400000X2.400000*%
%ADD17C,1.600000*%
%ADD18O,1.600000X1.600000*%
G04 APERTURE END LIST*
D10*
%TO.C,J14*%
X169625000Y-99500000D03*
D11*
X172165000Y-99500000D03*
%TD*%
D10*
%TO.C,J21*%
X141250000Y-99500000D03*
D11*
X143790000Y-99500000D03*
%TD*%
%TO.C,J20*%
X180920000Y-35500000D03*
X183460000Y-35500000D03*
D10*
X186000000Y-35500000D03*
%TD*%
D11*
%TO.C,J3*%
X103420000Y-35500000D03*
X105960000Y-35500000D03*
D10*
X108500000Y-35500000D03*
%TD*%
D11*
%TO.C,J1*%
X87040000Y-35500000D03*
D10*
X84500000Y-35500000D03*
%TD*%
D11*
%TO.C,J19*%
X188540000Y-43500000D03*
D10*
X186000000Y-43500000D03*
%TD*%
D11*
%TO.C,J18*%
X181040000Y-43500000D03*
D10*
X178500000Y-43500000D03*
%TD*%
%TO.C,J12*%
X108500000Y-43500000D03*
D11*
X111040000Y-43500000D03*
%TD*%
D10*
%TO.C,J2*%
X101000000Y-43500000D03*
D11*
X103540000Y-43500000D03*
%TD*%
D10*
%TO.C,J13*%
X112875000Y-99500000D03*
D11*
X115415000Y-99500000D03*
%TD*%
D12*
%TO.C,Q1*%
X143000000Y-35500000D03*
D13*
X145540000Y-38040000D03*
X148080000Y-35500000D03*
%TD*%
%TO.C,Q2*%
X145500000Y-66080000D03*
X142960000Y-63540000D03*
D14*
X145500000Y-61000000D03*
%TD*%
D15*
%TO.C,D1*%
X145500000Y-81000000D03*
D16*
X145500000Y-96240000D03*
%TD*%
D11*
%TO.C,J11*%
X87040000Y-99500000D03*
D10*
X84500000Y-99500000D03*
%TD*%
D11*
%TO.C,J10*%
X200540000Y-99500000D03*
D10*
X198000000Y-99500000D03*
%TD*%
%TO.C,J9*%
X145500000Y-47500000D03*
D11*
X145500000Y-50040000D03*
%TD*%
D10*
%TO.C,J8*%
X145500000Y-73500000D03*
D11*
X145500000Y-76040000D03*
%TD*%
D10*
%TO.C,J7*%
X125000000Y-35500000D03*
D11*
X127540000Y-35500000D03*
%TD*%
D10*
%TO.C,J6*%
X159500000Y-63500000D03*
D11*
X162040000Y-63500000D03*
%TD*%
D10*
%TO.C,J5*%
X163000000Y-35500000D03*
D11*
X165540000Y-35500000D03*
%TD*%
D10*
%TO.C,J4*%
X198000000Y-35500000D03*
D11*
X200540000Y-35500000D03*
%TD*%
D17*
%TO.C,R2*%
X135542500Y-73500000D03*
D18*
X120302500Y-73500000D03*
%TD*%
%TO.C,R4*%
X171102500Y-92240000D03*
D17*
X171102500Y-77000000D03*
%TD*%
%TO.C,R3*%
X171102500Y-41500000D03*
D18*
X171102500Y-56740000D03*
%TD*%
D17*
%TO.C,R1*%
X136000000Y-48500000D03*
D18*
X120760000Y-48500000D03*
%TD*%
M02*
